<?xml version="1.0" encoding="UTF-8" standalone="no"?>
<!-- Created with Inkscape (http://www.inkscape.org/) -->

<svg
   width="210mm"
   height="297mm"
   viewBox="0 0 210 297"
   version="1.1"
   id="svg5"
   sodipodi:docname="classified-advertising-fr-ads.svg"
   xml:space="preserve"
   inkscape:version="1.2 (dc2aedaf03, 2022-05-15)"
   inkscape:export-filename="classified-advertising-fr-ads.png"
   inkscape:export-xdpi="193.72008"
   inkscape:export-ydpi="193.72008"
   xmlns:inkscape="http://www.inkscape.org/namespaces/inkscape"
   xmlns:sodipodi="http://sodipodi.sourceforge.net/DTD/sodipodi-0.dtd"
   xmlns="http://www.w3.org/2000/svg"
   xmlns:svg="http://www.w3.org/2000/svg"><sodipodi:namedview
     id="namedview7"
     pagecolor="#ffffff"
     bordercolor="#666666"
     borderopacity="1.0"
     inkscape:showpageshadow="2"
     inkscape:pageopacity="0.0"
     inkscape:pagecheckerboard="0"
     inkscape:deskcolor="#d1d1d1"
     inkscape:document-units="mm"
     showgrid="false"
     inkscape:zoom="0.84096521"
     inkscape:cx="397.16269"
     inkscape:cy="638.55198"
     inkscape:window-width="1920"
     inkscape:window-height="1017"
     inkscape:window-x="-8"
     inkscape:window-y="-8"
     inkscape:window-maximized="1"
     inkscape:current-layer="layer1" /><defs
     id="defs2"><filter
       inkscape:label="Leaves"
       inkscape:menu="Scatter"
       inkscape:menu-tooltip="Leaves on the ground in Fall, or living foliage"
       style="color-interpolation-filters:sRGB"
       id="filter48372"
       x="0"
       y="0"
       width="1"
       height="1"><feTurbulence
         baseFrequency="0.09"
         numOctaves="5"
         type="fractalNoise"
         result="result6"
         id="feTurbulence48356" /><feColorMatrix
         values="1 0 0 0 0 0 1 0 0 0 0 0 1 0 0 0 0 0 4.9 -2.9 "
         result="result5"
         in="result6"
         id="feColorMatrix48358" /><feComposite
         in2="result5"
         operator="in"
         in="SourceGraphic"
         id="feComposite48360" /><feMorphology
         result="result3"
         radius="6"
         operator="dilate"
         id="feMorphology48362" /><feTurbulence
         baseFrequency="0.2"
         numOctaves="1"
         type="fractalNoise"
         result="result91"
         id="feTurbulence48364" /><feDisplacementMap
         result="result4"
         scale="15"
         yChannelSelector="G"
         xChannelSelector="R"
         in="result3"
         in2="result91"
         id="feDisplacementMap48366" /><feComposite
         in2="result4"
         operator="arithmetic"
         result="result2"
         k1="0.5"
         k3="1"
         id="feComposite48368"
         k2="0"
         k4="0" /><feConvolveMatrix
         order="3 3"
         kernelMatrix="1 0 0 0 2 0 0 0 -1 "
         targetX="0"
         targetY="0"
         divisor="1.5"
         edgeMode="duplicate"
         in="result2"
         id="feConvolveMatrix48370" /></filter></defs><g
     inkscape:label="Layer 1"
     inkscape:groupmode="layer"
     id="layer1"><rect
       style="opacity:1;fill:#ffe6d5;fill-opacity:1;stroke:none;stroke-width:4.99999;stroke-dasharray:none;stroke-opacity:1"
       id="rect46024"
       width="209.91408"
       height="229.67159"
       x="0.048139609"
       y="55.130051"
       ry="0" /><rect
       style="opacity:1;fill:#ffe6d5;fill-opacity:1;stroke:none;stroke-width:4.99999;stroke-dasharray:none;stroke-opacity:1;filter:url(#filter48372)"
       id="rect47530"
       width="210.35902"
       height="229.22665"
       x="0.048139609"
       y="55.574989"
       inkscape:export-filename=".\rect47530.jpg"
       inkscape:export-xdpi="193.72008"
       inkscape:export-ydpi="193.72008" /><path
       id="path61"
       style="color:#000000;fill:#000000;-inkscape-stroke:none"
       d="m 106.33976,71.529484 c -13.81843,0 -26.975925,2.860377 -38.916485,8.016048 -0.07181,0.160603 -0.239684,0.274402 -0.435116,0.274402 -0.05299,0 -0.09412,-0.01306 -0.132291,-0.02842 -1.162841,0.51083 -2.31465,1.042789 -3.453536,1.596802 0.01826,0.06769 0.03979,0.13282 0.03979,0.217558 0,0.245585 -0.212757,0.446484 -0.472839,0.446484 -0.215367,0 -0.303874,-0.140287 -0.244946,-0.327112 -26.33849,13.06482 -46.021397,37.576494 -52.51049,67.003664 h 10.254154 c 9.493504,-38.61688 44.294313,-67.199518 85.871759,-67.199518 16.07596,0 31.13697,4.276234 44.11566,11.750188 0.12409,-0.03771 0.23258,-0.03872 0.29352,0.02222 0.0418,0.04184 0.0375,0.0953 0.0134,0.152445 20.43447,11.876605 35.6557,31.706345 41.44967,55.274665 h 10.25415 c -1.81092,-8.21231 -4.65046,-16.04123 -8.37416,-23.34638 -0.0178,-0.008 -0.024,-0.01 -0.0424,-0.0176 -0.70619,-0.30347 -0.73856,-0.38339 -0.1788,-0.41135 -4.71904,-9.14643 -10.82873,-17.46155 -18.04954,-24.66361 -0.26664,-0.0746 -0.55405,-0.11452 -0.86041,-0.0884 -0.67536,0.0577 -1.22784,-0.0843 -1.22784,-0.315229 0,-0.287158 0.55543,-0.472657 1.18081,-0.486792 -6.87924,-6.687774 -14.72974,-12.38031 -23.31951,-16.843417 -0.38801,0.397442 -0.64893,0.402819 -1.41541,0.09354 -0.40561,-0.163667 -0.59562,-0.653733 -0.53382,-1.080038 -5.31882,-2.614904 -10.90806,-4.760739 -16.71216,-6.389791 0.003,0.221781 -0.14849,0.179665 -0.37,-0.103353 -8.35142,-2.308576 -17.14391,-3.54707 -26.22321,-3.54707 z m -14.894696,2.246375 c 0.06034,-0.0032 0.119703,0.01099 0.174667,0.04496 0.553726,0.342227 0.503062,0.50592 -0.247014,0.79375 -0.431602,0.165624 -0.564939,0.03354 -0.399975,-0.396358 0.102017,-0.265846 0.291304,-0.432758 0.472322,-0.44235 z m 6.937561,6.050793 c 0.429774,-0.0038 0.781348,0.19418 0.781348,0.439766 0,0.544581 -0.05028,0.544581 -0.892969,0 -0.572397,-0.369909 -0.556167,-0.433923 0.111621,-0.439766 z m 39.490615,1.339453 c 0.29248,-0.0037 0.65593,0.194179 0.8077,0.439767 0.34263,0.554366 0.18809,0.554366 -0.66973,0 -0.40244,-0.260082 -0.45751,-0.435658 -0.13797,-0.439767 z M 93.321952,82.10765 c 0.155121,0.0064 0.288585,0.04725 0.362769,0.121439 0.148378,0.148376 -0.115311,0.253999 -0.586011,0.234611 -0.520173,-0.02142 -0.625953,-0.12721 -0.269751,-0.269751 0.161167,-0.06449 0.337872,-0.09269 0.492993,-0.0863 z m -12.045259,0.39119 c 0.260081,0 0.472839,0.200898 0.472839,0.446485 0,0.245586 -0.08862,0.446484 -0.196887,0.446484 -0.108298,0 -0.321056,-0.200898 -0.472839,-0.446484 -0.151784,-0.245587 -0.06317,-0.446485 0.196887,-0.446485 z m 62.725367,0.900204 c 0.26605,0.0037 0.18729,0.194015 -0.17518,0.42323 -0.53818,0.340326 -0.45632,0.498099 0.44648,0.858345 1.02544,0.409181 1.03587,0.44297 0.14832,0.469222 -0.52629,0.01556 -1.06468,-0.253526 -1.19683,-0.597896 -0.26793,-0.698228 0.0456,-1.163242 0.77721,-1.152901 z m -81.490113,1.387512 c 0.155119,0.0064 0.28858,0.04776 0.362768,0.121956 0.148368,0.148376 -0.1153,0.253999 -0.586011,0.234611 -0.520172,-0.02142 -0.625953,-0.127726 -0.269751,-0.270267 0.161167,-0.06449 0.337874,-0.09269 0.492994,-0.0863 z m 93.557083,0.838192 c 0.38287,0 0.69608,0.200897 0.69608,0.446484 0,0.245586 -0.18905,0.446484 -0.42013,0.446484 -0.2311,0 -0.5443,-0.200898 -0.69608,-0.446484 -0.15179,-0.245587 0.0373,-0.446484 0.42013,-0.446484 z m 3.16156,10.285677 c 0.1389,0.02553 0.1654,0.147562 0.0238,0.376721 -0.13346,0.215942 -0.69779,0.507282 -1.25419,0.647506 -0.97598,0.245967 -0.98142,0.232533 -0.14521,-0.392224 0.59996,-0.448242 1.14414,-0.674552 1.37563,-0.632003 z m 16.37781,6.318475 c 0.0425,-0.0255 0.14982,0.0119 0.31781,0.11576 0.29987,0.18533 0.43453,0.4481 0.29921,0.58342 -0.13531,0.13531 0.10271,0.5106 0.52865,0.83406 0.70063,0.53203 0.65715,0.58919 -0.45372,0.60203 -0.67536,0.007 -1.22783,-0.17458 -1.22783,-0.40566 0,-0.2311 0.20412,-0.54647 0.45372,-0.70073 0.24959,-0.15426 0.31926,-0.49876 0.15451,-0.76533 -0.0923,-0.14934 -0.11485,-0.238 -0.0724,-0.26355 z m 0.76585,3.71554 c 0.0918,0.008 0.1853,0.0295 0.27543,0.0641 0.92301,0.3542 0.81408,0.60254 -0.26406,0.60254 -0.50567,0 -0.80042,-0.19197 -0.65526,-0.42684 0.10887,-0.17615 0.36863,-0.26493 0.64389,-0.23978 z m -70.03449,1.01079 c -5.53682,0 -10.903434,0.72707 -16.021242,2.07171 -0.163282,0.20633 -0.382414,0.26461 -0.684196,0.18035 -19.8178,5.44738 -35.747363,20.33622 -42.626339,39.52162 h 5.32319 c 5.014831,-12.76245 14.419591,-23.30736 26.360148,-29.78475 -0.448885,0.10593 -0.517724,0.0722 -0.06253,-0.21807 0.233633,-0.149 0.75109,-0.30246 1.337386,-0.44442 7.911151,-4.04048 16.870997,-6.32675 26.373583,-6.32675 16.75467,0 31.833,7.08587 42.41705,18.42317 0.1812,-0.0586 0.36239,-0.10129 0.52658,-0.10129 0.74319,0 0.80004,0.11235 0.33745,0.66973 -0.0503,0.0606 -0.12178,0.11508 -0.18862,0.17105 4.62217,5.12494 8.34771,11.07486 10.91613,17.61133 h 5.32319 c -8.72636,-24.33774 -32.01198,-41.77368 -59.33178,-41.77368 z m -79.26286,6.8001 c 0.382882,0 0.571913,0.2009 0.42013,0.44648 -0.151784,0.24558 -0.464985,0.44649 -0.696082,0.44649 -0.231088,0 -0.420129,-0.20091 -0.420129,-0.44649 0,-0.24558 0.313211,-0.44648 0.696081,-0.44648 z m 156.70258,0.14883 c 0.34678,0 0.52698,0.16793 0.40049,0.37259 -0.12648,0.20465 -0.30668,0.37207 -0.40049,0.37207 -0.0938,0 -0.27401,-0.16742 -0.40049,-0.37207 -0.12648,-0.20466 0.0537,-0.37259 0.40049,-0.37259 z m -106.998637,0.79582 c 0.613143,0.0437 0.604509,0.084 -0.05478,0.25631 -0.429773,0.11231 -0.781348,0.39047 -0.781348,0.61805 0,0.22758 -0.225608,0.41341 -0.501261,0.41341 -0.346281,0 -0.329291,-0.20696 0.05478,-0.66972 0.305736,-0.36838 0.882898,-0.64654 1.282609,-0.61805 z m 108.113297,0.0791 c 0.20518,0 0.38256,0.0715 0.52503,0.21394 0.28495,0.28496 0.0133,0.43667 -0.78083,0.43667 -1.02839,0 -1.09657,-0.0677 -0.43718,-0.43667 0.25459,-0.14247 0.4878,-0.21394 0.69298,-0.21394 z m -4.80849,1.25884 c 0.24532,-0.0156 0.3452,0.085 0.3452,0.2992 0,0.19202 -0.55247,0.37955 -1.22783,0.41703 -1.05959,0.0588 -1.10549,0.0151 -0.33487,-0.31781 0.58152,-0.25127 0.97217,-0.3828 1.2175,-0.39842 z m -105.532578,0.8816 c 0.203765,0.0462 0.351797,0.48875 0.322978,1.30018 -0.04644,1.30876 -0.564956,1.60885 -2.380733,1.37666 -0.301008,-0.0385 -1.145318,0.23873 -1.875855,0.6165 -1.786846,0.92402 -2.118282,0.86454 -1.149284,-0.20619 0.533512,-0.58952 1.37546,-0.89297 2.476852,-0.89297 1.407307,0 1.712395,-0.17464 1.948718,-1.11621 0.194244,-0.77394 0.453559,-1.12416 0.657324,-1.07797 z m 108.091078,3.55275 c 0.50489,-0.0236 0.76326,0.19389 0.76326,0.65061 0,0.36839 -0.0167,0.64606 -0.0372,0.61702 -0.0204,-0.0291 -0.6399,-0.18488 -1.37666,-0.34675 -1.11138,-0.24418 -1.20003,-0.34934 -0.52141,-0.61702 0.47756,-0.18838 0.86909,-0.28968 1.17202,-0.30386 z m 4.50773,1.3808 c 0.37987,0.0483 0.86972,0.46425 0.86972,0.85938 0,0.57064 -0.77103,0.53232 -1.13482,-0.0563 -0.16187,-0.26192 -0.18681,-0.58312 -0.0558,-0.71417 0.08,-0.08 0.19429,-0.10497 0.32091,-0.0889 z m -2.13113,1.002 c 0.0469,-0.0469 0.10908,0.0157 0.18035,0.19379 0.12899,0.32232 0.11319,0.70737 -0.0351,0.85576 -0.14837,0.14837 -0.254,-0.11531 -0.23461,-0.58601 0.0108,-0.26008 0.0425,-0.41659 0.0894,-0.46354 z m 2.29857,8.60103 c 0.28043,-0.0154 0.67101,0.0441 1.14876,0.18603 0.61396,0.18242 0.8817,0.35173 0.5948,0.37621 -0.2869,0.0244 -0.81926,0.15864 -1.18288,0.29817 -0.36362,0.13954 -0.78526,0.0532 -0.93689,-0.19223 -0.25244,-0.40846 -0.0912,-0.64252 0.37621,-0.66818 z m 8.71316,12.66279 c 0.26008,0 0.47284,0.2009 0.47284,0.44649 0,0.24559 -0.0887,0.44648 -0.19689,0.44648 -0.1083,0 -0.32106,-0.20089 -0.47284,-0.44648 -0.15178,-0.24559 -0.0632,-0.44649 0.19689,-0.44649 z m -82.36552,8.86096 c -0.11695,0.0102 -0.60949,0.1969 -0.75499,0.4594 -0.236,-0.007 -0.53296,-0.0414 -0.67696,-0.15038 -0.13,0.52 -0.0383,0.46409 -0.31626,0.35709 -0.032,-0.065 -0.24774,-0.003 -0.50074,-0.1757 -0.29,0.021 -0.0309,0.72056 -0.55088,1.03456 -0.41698,0.915 -0.21296,2.04609 -0.52296,2.40709 -0.388,0.996 -0.71503,1.17519 -0.95601,1.43919 -1.387,2.66 -2.36309,5.32486 -3.08509,7.20886 -0.75,1.759 -0.86519,2.81327 -1.20819,3.44527 -0.15,0.015 -3.194,8.25497 -2.882,8.21397 0.166,-0.168 -2.61773,7.35603 -2.81533,7.39903 0.0049,0.0773 0.05664,0.75929 -0.03876,1.11673 0.02971,-0.008 0.05924,-0.0147 0.08837,-0.015 0.356198,0.03 -0.161179,0.50291 -0.239779,0.58291 0.0939,-0.044 0.362809,-0.4479 0.401009,-0.3669 -0.1014,0.299 2.81538,0.3782 2.72438,0.3452 0.28,-0.009 2.37407,-0.0764 2.54507,0.0506 0.111,-0.338 0.35432,-0.32865 0.31832,-0.88263 -0.128,-0.525 -0.097,-1.73718 0.72502,-2.76418 0.439,-1.449 0.96764,-1.99109 0.91364,-2.53007 0.493,-0.416 0.84614,-0.18697 0.89814,-0.44597 0.17,-0.313 1.36309,-0.73517 1.69809,-0.52917 0.912,-0.192 1.36613,0.21419 2.73213,0.0982 0.023,0.04 1.98067,-0.49599 1.85467,-0.12299 -0.077,0.137 1.99793,0.17421 2.01693,0.0682 0.866,-0.243 1.73341,-0.33406 2.35541,0.0289 0.843,-0.176 1.53184,-0.31187 1.99884,-0.28887 0.1,0.437 0.79075,0.19282 1.02475,0.74982 0.26484,0.12266 0.42379,0.42757 0.52813,0.81907 0.0924,0.061 0.17187,0.12761 0.21756,0.20154 0.17548,0.28394 0.11261,0.4241 -0.10335,0.42271 0.0776,0.58593 0.10483,1.24302 0.17104,1.79679 0.145,1.254 0.72304,1.30291 1.04904,2.15491 0.703,0.307 0.30384,0.60866 0.58084,1.03766 0.217,-0.165 0.57711,0.2871 0.74311,0.3421 0.086,0.049 0.29103,-0.30463 0.41703,-0.25063 0.237,-0.267 0.9477,0.40485 1.1007,-0.0971 0.002,0.028 0.21596,-0.088 0.49196,-0.24701 0.175,0.133 0.40031,0.32685 0.45631,0.0879 0.126,-0.218 0.54906,-0.3299 0.97306,-0.1509 0.385,-0.102 -0.1491,0.23409 0.2589,0.20309 0.152,-0.158 0.59267,0.28694 0.80667,0.10594 -0.003,0.0429 0.0103,0.007 0.0222,-0.0305 0.23383,-0.0321 0.39468,-0.19048 0.58808,-0.31678 -0.103,-0.149 -0.13306,-1.58399 -1.35806,-4.42299 -0.14928,-0.32612 -0.31949,-0.75372 -0.47697,-1.12189 -0.4704,-0.0267 -0.56549,-0.12794 -0.22273,-0.2651 0.0318,-0.0127 0.0655,-0.0175 0.0982,-0.0274 -1.28175,-3.03804 -2.82806,-7.27306 -4.86327,-12.05818 -1.721,-4.33798 -3.59733,-7.32443 -4.31033,-9.52241 -1.006,-2.16 -1.19577,-3.87992 -1.44177,-3.97392 -0.242,-0.315 0.14503,-0.8047 -0.26097,-0.8847 0.197,-0.125 0.18795,-0.0772 0.076,-0.2372 -0.059,0.022 -0.22037,-0.006 -0.0884,0.13384 -0.365,-0.361 -0.62967,-0.20392 -0.91467,-0.15192 -0.108,0.035 -0.66927,0.0782 -0.68627,0.22117 -0.516,-0.191 -0.0846,-0.52927 -0.60358,-0.30127 -0.268,0.037 -0.47541,-0.13698 -0.41341,0.216 0.039,-0.25898 -0.55502,-0.0798 -0.61702,-0.3638 0.0712,-0.0395 0.0741,-0.0556 0.0351,-0.0522 z m -14.308167,32.75511 c -0.26358,0.069 -0.517907,0.38766 -0.19482,0.216 0.09779,0.0213 0.156901,-0.0739 0.19482,-0.216 z M 64.340259,153.32294 c -0.908408,-0.023 -1.70801,0.37554 -2.600358,0.39429 -1.448998,0.048 -1.974319,0.022 -2.910417,0.19999 -1.026598,-0.039 -1.390198,-0.34303 -2.357996,-0.063 -0.436598,0.196 -0.814212,0.49794 -0.681612,0.70694 -0.369563,0.24575 -0.582351,-0.35961 -0.65164,-0.21394 -0.09177,-0.0479 -0.413436,0.12152 -0.169498,0.16795 -0.1794,0.202 0.120373,0.10067 0.03617,0.28267 -0.0465,2.61998 -0.146179,5.43896 0.453719,7.84396 -0.01,2.799 -0.09631,5.12211 0.203089,7.61711 -0.4291,0.762 -0.0433,1.49815 -0.262,3.01015 -0.1162,1.226 -0.175211,2.8138 -0.05891,4.6638 0.3246,1.522 -0.289574,3.27339 -0.128674,4.62039 -0.3445,1.159 -0.107198,2.78685 -0.163298,3.44785 0.1532,-0.055 0.144512,-0.15197 0.589112,-0.03 0.103298,0.122 -0.08381,0.15016 0.01809,0.15916 0.1156,0.254 0.312715,-0.29045 0.428915,-0.0754 0.533698,-0.47 0.827487,-0.047 1.167887,-0.10903 0.3915,-0.03 0.265509,-0.21882 0.752409,-0.24082 0.2741,0.165 -0.116332,0.33526 0.174666,0.28526 0.2152,0.142 0.43868,0.39583 0.501778,0.14883 0.5066,0.329 0.688856,0.31099 1.000456,0.30799 0.3619,-0.156 0.782905,-0.7512 0.730705,-0.4222 0.0973,0.095 0.504281,0.17812 0.341581,0.20412 0.6147,-0.002 0.08709,-0.55794 0.548287,-0.39894 0.0191,-0.503 -0.271135,0.0161 -0.272335,-0.19689 0.0165,-0.298 0.188239,-1.56014 0.290939,-2.00814 -0.3357,-1.138 0.456308,-2.17389 0.222208,-3.29489 -0.1336,-1.084 -0.450201,-1.19897 -0.622701,-2.01797 -0.2282,-1.264 -0.182603,-1.45417 -0.108003,-2.16317 -0.032,-0.334 0.236768,-0.42809 0.276468,-0.72709 0.0827,-0.147 0.273118,-0.6026 0.444418,-0.4346 -0.0098,0.323 0.653698,0.35265 1.223698,0.15865 0.591798,-0.025 1.42935,-0.51771 2.550748,-0.42271 0.5588,-0.113 1.257731,0.60299 1.739429,0.23099 0.4946,0.034 0.297827,0.43086 0.404627,-0.11214 0.572198,0.224 0.772986,0.19085 1.072286,0.19585 0.398998,-0.016 0.365283,0.272 0.443383,0.755 1.062898,2.57298 1.815667,5.39333 2.637565,6.88433 1.067198,1.66 1.089702,2.10262 1.6738,2.65462 0.574998,0.367 0.282219,0.18706 0.444417,0.31006 0.1201,0.531 0.301343,0.38296 0.402043,0.22996 0.0414,0.239 0.38712,-0.10494 0.63562,0.0481 0.1659,0.202 -0.107489,0.0213 0.490409,0.0393 0.988198,0.262 0.672186,0.29762 0.893486,0.18862 0.3795,0.041 0.43801,0.031 0.749308,0.15296 0.5602,-0.095 0.02482,-0.0827 0.607715,-0.3917 0.2683,-0.221 0.512578,0.19008 0.677478,0.20308 0.2743,-0.214 0.610723,-0.0823 1.088823,-0.0103 0.103798,0.016 0.317917,-0.29186 0.524515,-0.38086 0.0713,-0.246 0.04522,0.63418 0.213424,0.56018 0.1824,-0.079 0.149438,-0.47426 0.02274,-0.31626 0.0132,-0.048 -0.30297,-1.31268 -0.89607,-1.99368 -0.452898,-1.549 -0.756321,-2.28834 -1.945617,-4.15634 -0.6459,-1.82798 -1.118274,-3.33711 -1.709974,-4.48809 -0.425657,-0.75338 -0.935818,-1.41642 -0.948262,-1.59009 0.24637,-0.16462 0.441311,-0.4235 0.807703,-0.44855 1.055398,-0.547 1.624681,-1.49905 2.018481,-1.95905 0.596798,-0.616 0.521894,-1.74386 0.847494,-2.33784 0.100698,-0.373 0.914859,-1.39934 1.284159,-2.21434 0.253,-0.793 -0.330119,-2.37098 -0.188619,-3.23598 -0.0482,-1.556 -0.365163,-2.59685 -0.942061,-4.15685 -0.6086,-1.236 -0.476762,-1.89783 -2.070158,-3.06183 -0.918998,-1.044 -2.715871,-1.99519 -3.802869,-2.25619 -1.424898,-0.262 -3.387311,0.0338 -4.713407,-0.12919 0.161198,-0.009 0.254063,-0.17196 0.245463,-0.38396 -0.5674,0.17 -1.900432,0.0943 -2.722832,-0.0367 -0.334348,-0.131 -0.649594,-0.1856 -0.952396,-0.19327 z m 109.616561,0.076 c -0.0378,-0.006 -0.073,0.0127 -0.094,0.0749 -1.432,0.049 -1.66465,0.47534 -3.28765,1.04334 -1.303,0.165 -2.25529,0.63964 -3.19929,1.32964 -0.703,0.794 -1.37794,2.43124 -1.97094,3.39824 -0.188,1.349 -1.467,2.48094 -1.418,4.02094 -0.136,1.439 0.69093,2.40784 0.96893,3.35484 0.47,1.085 1.72028,2.21236 2.42828,2.97036 0.283,0.151 -0.30626,-0.0633 0.91674,0.29869 0.548,0.559 2.67598,2.0302 4.57698,2.5802 0.723,0.349 1.96631,0.88369 2.09031,1.60869 0.15,0.644 0.38999,1.52097 0.47697,2.38797 -0.29198,1.841 -0.33993,2.63933 -1.60093,3.18533 -1.426,0.494 -3.25511,0.93786 -5.59811,1.08986 -0.083,-0.285 -0.37418,0.46093 -0.77618,0.18293 -0.221,-0.031 -0.44,-0.53876 -0.817,-0.33176 -0.446,0.168 -0.0927,0.24474 -0.71365,0.20774 0.061,-0.115 -1.02503,-0.21885 -1.09503,-0.24185 -0.19611,0.24401 -0.11866,0.0898 -0.20205,-0.0362 -0.0467,0.15573 -0.22199,0.57771 0.006,0.69815 -0.192,0.054 -0.0657,-0.28981 -0.2067,0.0982 -0.154,-0.17 0.19509,0.20178 0.31109,0.34778 0.021,0.367 0.26971,0.53883 0.12971,1.15083 -0.161,0.144 0.67712,0.52905 0.49712,0.84905 0.119,0.56898 0.4407,0.51232 0.6227,1.10432 0.297,0.752 -0.83094,1.13398 -0.95394,1.32498 0.135,0.495 1.04614,0.57285 1.26814,0.58085 0.615,-0.006 0.62927,-0.64023 1.71927,-0.39223 1.901,0.185 3.35561,-0.17161 4.98161,-0.31161 1.73,-0.32 2.84198,-1.03509 4.31498,-1.91409 1.766,-0.695 2.81094,-2.51482 3.01894,-3.89382 0.711,-1.408 1.13008,-2.48822 0.95808,-4.24522 -0.107,-1.214 0.024,-2.99203 -0.54105,-3.96203 -0.507,-1.095 -1.32988,-1.67695 -2.41588,-2.44895 -0.012,-0.059 -0.68707,-0.59713 -1.55907,-1.05213 -1.15,-0.837 -2.34773,-1.25377 -4.19871,-1.88877 -1.018,-0.955 -1.30536,-0.89234 -2.04536,-1.76734 -0.348,-0.629 -0.67164,-1.22604 -1.02164,-2.08204 -0.297,-1.183 1.26667,-1.95876 1.70067,-2.61276 0.554,-0.849 1.66905,-0.96981 3.08405,-1.10381 0.295,0.413 0.87802,0.0616 1.35702,0.32763 0.847,0.005 1.49292,0.036 2.03192,0.262 0.699,0.229 1.65005,0.88608 1.85105,1.06608 0.279,0.257 0.094,0.14186 0.416,0.11886 -0.108,-0.487 0.31604,0.15544 0.58704,0.0444 0.079,0.279 0.02,-0.21018 -0.093,-0.0672 0.157,-0.554 0.17023,-1.33519 0.16123,-1.54719 0.246,-0.276 0.87182,-0.76158 0.98082,-1.01958 0.25,-0.777 0.53831,-0.88329 0.57929,-1.02629 0.242,-0.517 -0.34712,-0.69403 0.21188,-0.78703 0.0485,-0.0711 0.21501,-0.22413 0.0687,-0.19844 -0.006,0.01 -0.004,0.0151 -0.0129,0.0264 -0.01,-0.005 -0.0182,-0.0126 -0.0279,-0.0181 -0.0138,0.004 -0.0138,1.6e-4 -0.031,0.006 3.2e-4,-0.01 0.005,-0.0129 0.007,-0.0217 -0.67432,-0.39855 -1.06964,-1.16639 -1.86552,-1.13327 -0.761,-0.583 -1.19007,-0.47806 -2.02107,-0.68006 -0.663,-0.137 -1.60326,-0.86886 -2.07326,-0.64286 -0.91986,-0.0214 -1.82112,-0.2374 -2.31355,-0.0904 0.0322,-0.0452 -0.076,-0.20798 -0.16847,-0.22272 z m 8.44187,2.76934 c 0.008,0.005 0.0159,0.0107 0.0243,0.0155 0.0182,-0.005 0.0281,-0.006 0.0408,-0.008 0.085,-0.13473 -0.0438,-0.15278 -0.0651,-0.007 z m -17.75654,24.35458 c 0.0169,-0.0563 0.0179,-0.0815 -0.0243,-0.0398 0.0133,0.0122 0.0154,0.0264 0.0243,0.0398 z M 132.487,153.52861 c 0.0506,0.0361 0.16375,0.1257 0.14625,0.1602 -0.039,0.067 -0.40234,0.10594 -0.22634,0.58394 -0.131,0.928 -0.38481,2.34643 -0.31781,3.38843 -0.071,0.914 0.69394,3.3179 0.39894,4.9599 0.056,1.562 0.0609,3.45589 -0.14211,4.60489 0.046,0.867 0.2483,2.39391 0.3023,3.12591 -0.0333,0.49006 0.17971,1.2389 0.30076,2.03501 0.0485,-0.0794 0.10897,-0.13746 0.19017,-0.13746 0.22385,0 0.40669,0.16253 0.40669,0.36071 0,0.19818 0.55248,0.56457 1.22784,0.81442 l 1.22834,0.45423 -1.45055,-0.0331 c -0.7976,-0.0183 -1.46584,-0.0331 -1.48518,-0.0331 -0.006,0 -0.039,-0.17433 -0.0538,-0.22686 -0.005,0.0515 -0.003,0.10393 -0.0103,0.15503 -0.0419,0.50692 -0.1447,1.0119 -0.25942,1.53169 0.39854,0.50308 0.39298,0.63358 -0.0729,0.33538 -0.16992,0.74855 -0.35585,1.54968 -0.45579,2.49803 -0.021,1.641 0.44472,3.01228 0.26872,4.10828 -0.149,1.21 -0.33785,2.57573 -0.24185,3.33571 0.042,0.286 0.11993,0.3069 -0.0331,0.4129 -0.037,0.262 0.43507,-0.05 0.74207,0.16795 0.496,-0.297 0.91476,-0.29566 1.24076,-0.11266 0.499,-0.207 1.44516,-0.31504 2.20916,-0.063 0.585,0.095 1.24329,-0.15129 1.62729,-0.28629 0.559,-0.06 1.68966,0.34902 1.86966,0.27802 0.567,-0.177 0.44404,0.0733 1.18804,-0.26975 0.583,0.027 1.11103,0.51314 1.94303,0.40514 1.07,-0.161 1.73905,0.0237 2.19005,0.15968 0.47,0.315 1.19498,-0.0108 1.58698,-0.01 1.886,-0.193 4.08726,-0.54585 5.58726,-1.25883 1.933,-0.805 2.85155,-2.04536 4.25555,-3.91036 1.417,-2.061 2.14545,-3.4539 2.61845,-5.20588 0.416,-1.668 1.57049,-4.05307 1.55649,-6.24407 0.012,-1.597 -0.83094,-1.61976 -0.84594,-3.05976 -0.356,-1.368 -0.34268,-2.85412 -0.94568,-3.79512 -0.046,-1.12098 -1.12626,-2.25577 -2.07326,-3.04477 -0.566,-0.975 -1.33193,-1.94236 -2.38693,-2.60036 -0.975,-1.263 -2.85375,-1.90786 -4.83175,-2.16886 -1.983,-0.415 -4.69237,-1.13887 -7.16235,-1.15187 -0.231,0.127 0.0221,-0.0981 -0.55294,-0.20412 -0.154,-0.163 -0.84212,0.23907 -1.51412,0.55707 -0.515,-0.1 -1.38795,0.39372 -1.66295,0.19172 -0.254,0.107 -0.64602,-0.0159 -0.57102,-0.0269 -0.162,0.169 -0.783,-0.20372 -1.202,0.0393 -0.523,0.091 -1.39767,-0.7363 -1.96267,-0.3173 -0.823,0.056 -0.45825,-0.43486 -0.88625,-0.14986 -0.311,0.259 -1.20412,0.005 -1.51412,-0.0951 -0.4,0.233 0.0951,-0.0662 0.004,-0.0972 -0.267,-0.18 -0.27852,-0.19735 -0.2279,-0.16123 z m -81.633257,0.0398 c -0.03088,0.006 -0.06794,0.0234 -0.112137,0.0548 -0.05232,0.009 -0.09359,0.18247 -0.06976,0.25477 -2.321095,0.0188 -3.478005,0.3901 -5.481835,0.37827 -1.444498,0.368 -3.591044,-0.305 -4.541842,-0.262 -1.114498,0.071 -2.593342,-0.47223 -3.56464,-0.0532 -1.182598,0.045 -2.417767,1.08813 -3.340365,0.60513 -0.995998,-0.363 -1.667493,-0.50822 -2.342493,-0.46922 -0.593598,-0.057 0.03718,0.10731 -0.561723,-0.11369 -0.203799,-0.1227 -0.494185,0.13026 -0.558622,0.25942 -0.112709,-0.37085 -0.300352,0.27425 -0.333829,0.46354 -0.01547,-0.0991 -0.117151,-0.11147 -0.0124,0.0548 0.1476,-0.069 0.370167,0.21412 0.09767,0.43512 0.231098,3.98898 0.48734,7.03178 0.30024,9.87278 0.336998,2.355 -0.0907,4.40827 0.246496,5.12527 -0.335498,0.643 -0.115144,2.10306 0.109554,3.40806 -0.0015,1.312 -0.02078,3.10164 -0.172082,4.61264 0.0994,1.848 -0.0949,2.81828 -0.262,4.23126 -0.335898,1.308 -0.01213,2.2031 -0.269234,3.1471 -0.0667,0.164 0.09022,0.0936 0.127124,0.29662 0.4494,0.057 0.438767,0.364 0.442867,0.185 -0.1508,-0.044 0.704647,-0.25458 0.688847,-0.26458 0.2338,0.322 0.04326,0.17204 0.387056,0.21704 0.4226,-0.501 1.06553,-0.0254 1.12603,-0.10542 0.546198,0.438 -0.225126,-0.42197 0.125574,-0.29197 0.352198,0.189 0.610097,0.008 0.866097,0.13901 0.311698,0.056 0.245125,0.81928 0.743623,0.59428 0.1368,0.226 1.084502,-0.47706 0.977202,-0.12506 0.503298,0.466 0.315965,0.0621 0.344165,0.11214 0.0407,-0.205 -0.371423,-0.2671 0.134875,-0.6041 0.5426,-0.241 0.622602,-0.22904 0.274402,-0.29404 -0.375498,-0.877 0.198427,-1.40506 0.139527,-2.36006 -0.5151,-1.224 -0.05547,-2.81311 -0.02997,-3.84111 0.1824,-1.118 0.128889,-2.3898 0.203089,-3.6158 0.1065,-1.038 -0.328557,-2.15529 -0.390157,-2.67529 -0.1316,-0.185 0.134858,-0.35573 0.300756,-0.43873 0.3581,0.013 0.512088,0.24394 0.816488,-0.0481 0.0469,0.244 0.449436,-0.37604 0.885734,-0.40204 0.3413,-0.001 1.477845,0.45686 2.433443,0.48886 0.5147,0.042 1.318028,-0.66207 2.254126,-0.44907 0.6153,-0.016 1.364897,0.38124 2.176095,0.40824 1.502196,0.203 2.492951,-0.37519 3.179651,-0.39119 0.630298,0.113 1.397275,-0.19294 1.984375,0.41806 0.1739,0.068 -0.08204,0.32435 0.303857,-0.0357 -0.06109,-0.0527 -0.08108,-0.0609 -0.10697,-0.076 0.0423,10e-4 0.09497,-0.0358 0.111104,-0.19533 0.1291,-0.337 0.07205,0.51583 0.08165,-0.15917 0.1576,-0.623 0.151592,-1.31085 0.30179,-1.42885 -0.181198,-0.513 -0.460092,-0.33677 -0.314192,-0.51677 -0.1412,-0.188 -0.311358,-0.32003 -0.131258,-0.26303 -0.3753,-0.121 0.162686,-0.35596 0.01809,-0.86196 -0.1953,-0.312 -0.198722,-0.0621 -0.207222,-0.34107 -0.123,-0.379 0.553174,-0.67795 0.655774,-0.79995 -0.0476,-0.587 -0.397764,-0.37209 -0.337964,-0.49609 0.176979,-0.11024 0.305585,-0.0958 0.372587,-0.0708 -0.03046,-0.0191 -0.0655,-0.0411 -0.135909,-0.11007 0.0205,-0.009 -0.277444,-0.25227 -0.146244,-0.11627 -1.125698,0.009 -2.052778,0.004 -3.134176,-0.13384 -0.987298,0.331 -3.094002,0.09 -4.1429,0.18397 -2.019196,0.027 -2.48748,0.40392 -3.676778,0.41392 -1.696596,-0.039 -1.966331,0.0468 -2.537829,-0.23719 -0.4981,0.278 -1.045674,0.62616 -0.927076,0.0822 -0.227198,-0.335 0.08129,-1.36288 0.03669,-1.69188 -0.1445,0.272 -0.449141,-2.20733 -0.127641,-2.53731 -0.0581,-0.047 0.623226,-3.07982 0.490926,-3.07682 -0.0288,-0.391 -0.154333,-0.213 -0.438733,-0.53898 0.0079,-0.30723 0.176174,-0.47423 0.299207,-0.56121 -0.09779,0.18542 0.0012,0.22708 0.466638,-0.003 0.1946,0.139 0.909141,-0.19038 1.450041,-0.11938 -0.0512,0.125 0.846868,-0.39389 0.714168,-0.33589 -0.0253,0.094 1.158239,0.23486 1.089339,0.44286 0.4012,0.087 1.188931,-0.64657 2.183329,-0.31057 0.962798,-0.123 2.572293,0.17588 3.652491,0.0739 1.067996,0.002 2.223924,0.62696 3.292822,0.44596 1.299496,-0.164 1.773615,-0.52082 2.626713,-0.27182 0.11215,-0.049 0.16895,-0.0949 0.194303,-0.13177 0.01011,0.016 0.01798,0.0304 0.03617,0.0517 0.255098,-0.315 -0.006,-0.40995 -0.237195,-0.35295 0.0991,-0.117 -0.152243,-0.54706 0.02945,-0.72606 0.1726,-0.139 0.105612,-0.73036 0.151412,-1.73736 -0.0784,-0.12015 -0.122872,-0.17158 -0.147794,-0.19224 0.01018,-0.0155 0.01988,-0.0504 0.0186,-0.14056 -0.299198,0.002 -0.0072,-0.88788 -0.248563,-1.05988 0.0802,0.06 0.451244,-0.0451 0.155546,-0.52607 -0.2211,-0.123 -0.470001,-0.17324 -0.619601,-0.25424 -0.07189,0.004 -0.231525,0.002 -0.302307,-0.0651 0.0135,-0.0474 8.76e-4,-0.20565 -0.134359,-0.17725 z m 93.241337,4.80281 c 1.568,0.191 3.35883,0.46879 4.92683,1.01079 1.246,0.383 2.12528,1.54116 3.16828,2.59416 0.728,1.002 1.45664,2.27403 2.11564,3.43803 0.496,1.358 0.56312,2.59772 0.72812,4.07572 -0.323,1.51 -0.45014,3.89925 -0.92914,5.18625 -0.60992,0.95785 -0.74747,2.09233 -1.38958,3.1011 2.32356,1.316 4.6264,2.95641 3.97236,2.95641 -0.34332,0 -0.95072,-0.32697 -1.34978,-0.72605 v 5.1e-4 c -0.39908,-0.39908 -1.26748,-0.72605 -1.9296,-0.72605 -0.8437,0 -1.02248,-0.11441 -0.5979,-0.38344 0.57646,-0.36526 0.57865,-0.43372 -0.51005,-0.57206 -0.0105,0.0116 -0.0177,0.0241 -0.0284,0.0357 -0.22818,0.20652 -0.40649,0.41403 -0.57412,0.61392 0.23414,0.0388 0.13431,0.14318 -0.29094,0.41806 -0.0746,0.0482 -0.13199,0.0685 -0.20206,0.10852 -0.18332,0.16847 -0.37817,0.31038 -0.63562,0.36948 -0.615,0.72 -1.83227,1.31401 -2.35127,1.52601 -0.844,0.106 -0.62905,0.24265 -1.11105,-0.0724 -1.044,0.013 -1.82771,-0.33882 -2.70371,-0.0258 -0.999,-0.212 -2.40492,0.13208 -2.77192,-0.15192 -0.67336,-0.16541 -0.57249,-0.0328 -0.44907,0.0393 -1.04811,-0.0992 -2.17902,-0.16443 -2.31924,-0.0832 -0.378,-0.483 -0.69705,-0.22636 -0.69505,-0.58136 0.435,-0.658 -0.0656,-1.98099 0.0114,-2.58899 0.017,-0.879 0.18703,-1.3686 0.047,-2.4846 0.19239,-0.94235 -0.28944,-2.00432 -0.30593,-2.87631 -0.21173,0.14167 -0.34294,0.0582 -0.54725,-0.27234 -0.12992,-0.21019 0.15109,-0.48068 0.6227,-0.61753 0.17344,-0.55437 0.58357,-1.06037 0.33848,-1.64124 0.297,-0.355 -0.27535,-1.27486 -0.18035,-2.16886 -0.08,-0.959 0.0702,-1.52517 0.11317,-3.07217 0.149,-1.253 -0.1428,-2.38904 -0.2098,-3.23804 0.164,-0.791 -0.19523,-1.35652 -0.0532,-1.83452 0.316,-0.27498 0.22977,-0.34408 0.73277,-0.61908 0.729,-0.364 1.19905,-0.71034 2.20503,-0.56534 0.49,0.281 0.0305,0.18198 -0.35553,0.13798 0.142,0.143 -0.31039,0.1262 0.57361,0.1142 0.528,0.226 1.82022,-0.25678 2.93522,-0.42478 z m -79.070108,0.12196 c -0.2825,0.29 0.323404,0.13588 0.289904,0.35088 1.726598,0.128 2.038958,-0.67314 3.204456,-0.14314 1.094398,0.048 2.645818,0.58522 3.086116,1.02422 0.8064,0.27 1.432949,0.89579 1.579749,1.78077 0.465998,0.803 0.239919,1.79335 -0.06718,3.60133 -0.2028,1.908 0.06392,3.24465 -0.923975,4.38165 -1.089398,1.184 -2.941016,0.65015 -4.824512,1.06815 -0.928798,0.149 -1.800349,0.15593 -2.630847,-0.18707 -1.154498,0.078 -1.288378,0.37179 -1.990576,0.0398 -0.1642,-0.026 -0.877255,-0.0507 -0.988053,0.0243 -0.4532,0.263 -0.257304,-0.14197 -0.459404,-0.10697 -0.315513,0.0326 -0.297254,-0.0824 -0.214974,-0.17828 -0.201804,0.036 -0.413591,-0.0199 -0.463538,-0.0202 -0.06818,-0.23738 0.661824,-1.90258 0.538986,-1.92959 -0.06,-0.139 -0.0936,-2.71122 -0.280603,-2.48822 -0.0443,-1.713 0.446319,-3.03999 0.191719,-4.12999 -0.0164,-1.28998 -0.01265,-1.78004 0.06925,-2.42104 0.0159,-0.259 0.904943,-0.11661 1.456241,-0.52761 0.3581,-0.12 1.100145,-0.013 2.427243,-0.13901 z m -3.939295,11.65562 c 0.05816,-0.0104 0.115603,-0.0256 0.166915,-0.0558 0.06947,-0.12101 -0.08253,-0.0426 -0.166915,0.0558 z m 52.895993,-9.99474 c 0.0522,-0.006 0.43002,0.13818 0.27027,0.25218 0.418,0.529 0.67231,1.35695 1.19631,2.74195 0.659,0.882 1.08974,3.01291 1.51774,4.46691 0.818,1.534 1.08322,1.95668 1.59422,3.33468 0.36698,1.193 0.0187,1.72625 0.008,1.74925 -0.51,0.193 0.28319,1.36184 -0.36381,1.28984 -0.57998,-0.079 -1.45905,-0.0467 -2.77605,-0.0377 0.133,-0.253 -0.55109,0.0546 -0.61909,-0.11937 0.072,0.048 -1.17217,0.30011 -1.42317,0.0961 -0.672,-0.19498 -1.07863,0.40224 -1.59163,0.34624 -0.072,0.062 -0.54223,0.0359 -0.57723,0.0439 -0.585,-0.53 -1.25707,-0.2338 -1.52807,-0.6258 -0.443,-0.263 -0.49965,-0.53917 -0.29765,-0.82217 0.369,-0.103 0.33567,-0.81183 0.99167,-2.98483 0.0438,-0.0823 0.0887,-0.18085 0.1328,-0.26769 -0.16275,0.0417 -0.35003,0.12334 -0.61546,0.28784 -1.37588,0.8527 -1.72175,0.64533 -0.49558,-0.29714 0.60603,-0.46581 0.99187,-0.62713 1.38648,-0.54622 0.97338,-2.08446 2.02965,-5.18139 3.27887,-8.84494 -0.087,-0.0423 -0.10576,-0.061 -0.0884,-0.063 z m -16.659445,8.78448 c -0.252544,0.0462 -0.391668,0.39383 -0.361218,0.42271 -0.4223,0.28 -0.818116,-0.32617 -1.748214,-0.0362 -0.759598,0.17698 -1.15443,-0.0658 -2.174028,0.15916 -0.932498,0.204 -1.860315,-0.0295 -2.719213,0.0315 -0.8194,-0.138 -1.703273,-0.34858 -1.962671,-0.18758 -0.3567,-0.176 -0.462151,0.62597 -0.707451,0.38499 -0.565398,-0.247 -0.444268,0.22887 -1.235066,0.13487 -0.947598,-0.208 -1.006365,-0.17915 -1.398365,-0.17415 0.1047,-0.339 -0.773099,-0.44173 -1.054199,-0.25373 -0.156,-0.059 -0.09702,-0.45097 -0.271818,-0.21497 -0.1725,0.358 -0.447058,0.6368 -0.310058,0.8878 -0.3465,1.303 -0.779916,2.01793 -1.141016,2.80293 -0.0786,0.63 -0.503972,0.98404 -0.291972,1.21904 -0.164,0.295 0.0061,0.27819 0.04082,0.36019 0.119,0.25 0.756641,0.79071 0.833541,0.79271 0.16,0.288 1.280453,-0.31378 1.515153,-0.19378 0.4781,0.089 1.449953,-0.60314 2.208651,-0.29714 0.779898,0.08 1.987217,-0.003 2.639115,-0.0258 0.2449,-0.132 1.424375,-0.15996 1.891875,-0.33796 0.136498,0.336 0.06494,0.34299 0.39274,0.33899 0.1709,0.042 1.047576,-0.23227 1.623674,-0.30127 0.3946,-0.032 0.408573,0.2622 0.905371,0.2372 0.4637,0.035 1.262991,-0.1899 1.362191,-0.0739 0.776698,0.288 0.800379,0.0771 0.769979,-0.0139 0.181898,0.139 0.796487,-0.53237 0.637687,-0.68937 0.0029,-0.53 -0.1912,-0.87387 0.0801,-1.15187 -0.0985,-0.298 -0.259876,-0.64676 -0.137976,-0.85576 0.2162,-0.946 0.459201,-0.76907 0.447001,-1.26607 -0.0839,-0.221 -0.04517,-0.84303 0.06563,-1.28003 0.104379,0.0863 0.260522,0.15356 0.40101,0.23462 0.144782,-0.21769 0.332423,-0.44961 0.09767,-0.37569 -0.2699,-0.058 -0.46152,-0.27199 -0.28422,-0.27699 -0.04055,-0.007 -0.07864,-0.007 -0.114722,-5.1e-4 z m 0.301274,0.65319 c -0.02632,0.0396 -0.05084,0.0775 -0.07131,0.1142 0.0714,-5.5e-4 0.195654,0.0723 0.338997,0.12609 -0.05284,-0.10329 -0.155808,-0.17574 -0.267683,-0.24029 z m -0.07131,0.1142 c -0.05342,4.1e-4 -0.07797,0.0407 -0.05426,0.16692 -0.0091,-0.0392 0.01671,-0.0996 0.05426,-0.16692 z m 23.156201,2.99723 c 0.42978,-0.003 0.78135,0.19366 0.78135,0.43925 0,0.54458 -0.0502,0.54458 -0.89297,0 -0.5724,-0.36991 -0.55616,-0.43341 0.11162,-0.43925 z m 1.22835,2.22519 c 0.0259,-0.0195 0.20043,0.1089 0.53847,0.37362 0.41902,0.32812 0.95283,0.47825 1.18649,0.33383 0.23366,-0.14441 0.89546,-0.0846 1.47071,0.13281 0.91834,0.34711 0.84395,0.39606 -0.61081,0.40256 -1.01653,0.004 -1.87915,-0.27713 -2.23242,-0.72916 -0.25548,-0.32691 -0.37832,-0.49416 -0.35244,-0.51366 z m 12.3052,0.89297 c 0.10831,0 0.19688,0.20089 0.19688,0.44648 0,0.24559 -0.21276,0.44649 -0.47284,0.44649 -0.26009,0 -0.34867,-0.2009 -0.19688,-0.44649 0.15178,-0.24559 0.36455,-0.44648 0.47284,-0.44648 z m -9.21701,1.84175 c 0.15512,0.006 0.28858,0.0473 0.36277,0.12144 0.14837,0.14837 -0.11532,0.254 -0.58602,0.23461 -0.52016,-0.0215 -0.62594,-0.12721 -0.26975,-0.26975 0.16117,-0.0645 0.33787,-0.0927 0.493,-0.0863 z m 15.77681,3.52381 c 0.42978,-0.003 0.78187,0.19418 0.78187,0.43977 0,0.54457 -0.0508,0.54457 -0.89349,0 -0.57239,-0.36992 -0.55617,-0.43393 0.11162,-0.43977 z m 2.97708,1.83452 c 0.15512,0.006 0.28858,0.0473 0.36277,0.12144 0.14838,0.14837 -0.1153,0.254 -0.58601,0.23461 -0.52017,-0.0215 -0.62595,-0.12722 -0.26975,-0.26975 0.16116,-0.0645 0.33787,-0.0927 0.49299,-0.0863 z m 4.89376,0.59479 c 0.0702,0.0105 0.15594,0.0347 0.25528,0.0729 0.77356,0.29684 0.91514,0.6165 0.27285,0.6165 -0.23109,0 -0.54295,-0.19854 -0.69298,-0.44132 -0.11732,-0.18984 -0.0459,-0.27946 0.16485,-0.24805 z m -16.08532,0.0305 c 0.0453,-0.005 0.0951,0.008 0.14727,0.0398 0.20866,0.12897 0.26377,0.42147 0.12248,0.65009 -0.36107,0.58421 -0.50178,0.5183 -0.50178,-0.23461 0,-0.26818 0.096,-0.4403 0.23203,-0.45527 z M 10.21333,191.2028 c 9.728361,44.12034 49.110903,77.19942 96.12643,77.19942 45.99742,0 84.68431,-31.66408 95.44844,-74.35102 -0.15079,0.10233 -0.22221,-0.0669 -0.22221,-0.57205 0,-0.35758 0.17065,-0.54445 0.37931,-0.41548 0.0301,0.0186 0.0498,0.0466 0.0734,0.0713 0.15526,-0.64186 0.30544,-1.28551 0.44803,-1.93218 h -6.46369 c -0.0784,0.1448 -0.23381,0.24753 -0.41703,0.24753 -0.18323,0 -0.27515,-0.10271 -0.26406,-0.24753 h -3.10937 c -9.49292,38.61726 -44.29474,67.19952 -85.8728,67.19952 -41.578014,0 -76.379336,-28.5823 -85.872275,-67.19952 z m 36.794137,0 c 7.615541,21.24157 26.322459,37.22327 49.121549,40.94737 -0.345983,-0.57278 -0.518622,-1.12676 -0.374654,-1.27072 0.156058,-0.15606 0.283704,-0.0493 0.283704,0.23719 0,0.23147 0.266578,0.68862 0.626318,1.1157 3.154941,0.48744 6.385016,0.7462 9.675376,0.7462 27.32042,0 50.60641,-17.43713 59.3323,-41.77574 h -5.32267 c -2.55577,6.50503 -6.25847,12.42864 -10.84947,17.53691 0.51769,-0.0354 0.84281,0.0401 0.74052,0.20568 -0.1072,0.17345 -0.67784,0.30052 -1.23506,0.35036 -0.39254,0.4257 -0.79495,0.84147 -1.19993,1.25522 0.0113,0.033 0.0294,0.0645 0.0294,0.0997 0,0.17552 -0.21622,0.32505 -0.52141,0.39791 -10.48992,10.46258 -24.9671,16.92971 -40.97373,16.92971 -21.393225,0 -40.056299,-11.54865 -50.113735,-28.75638 -0.142063,-0.0546 -0.272457,-0.11482 -0.374654,-0.18087 -0.595351,-0.38475 -0.595351,-0.43006 0,-0.40824 0.0101,3.6e-4 0.02972,0.007 0.04031,0.007 -1.354147,-2.37977 -2.549654,-4.86178 -3.56154,-7.43727 z m 146.645313,1.29398 c 0.0534,0.009 0.11224,0.0318 0.17363,0.0698 0.24559,0.15178 0.44649,0.36454 0.44649,0.47284 0,0.1083 -0.2009,0.19689 -0.44649,0.19689 -0.24558,0 -0.44648,-0.21276 -0.44648,-0.47284 0,-0.19506 0.11273,-0.29357 0.27285,-0.26665 z m 2.65565,4.31136 c 0.10829,0 0.19689,0.2009 0.19689,0.44649 0,0.24558 -0.21276,0.44648 -0.47284,0.44648 -0.26008,0 -0.34867,-0.2009 -0.19689,-0.44648 0.15178,-0.24559 0.36454,-0.44649 0.47284,-0.44649 z m -140.163537,5.98362 c 0.06393,0.008 0.126813,0.0288 0.183968,0.0641 0.619343,0.38277 0.503725,0.65061 -0.280603,0.65061 -0.38287,0 -0.569737,-0.20412 -0.415478,-0.45372 0.115694,-0.18719 0.320329,-0.28395 0.512113,-0.26096 z m -37.827665,0.71416 c 0.260081,0 0.47284,0.2009 0.47284,0.44649 0,0.24559 -0.08862,0.44648 -0.196888,0.44648 -0.108297,0 -0.321055,-0.20089 -0.472839,-0.44648 -0.151773,-0.24559 -0.06317,-0.44649 0.196887,-0.44649 z m -1.350305,0.50178 c 0.15512,0.006 0.28858,0.0473 0.362769,0.12144 0.148366,0.14837 -0.115301,0.254 -0.586011,0.23461 -0.520174,-0.0215 -0.625955,-0.12721 -0.269751,-0.26975 0.161166,-0.0645 0.337873,-0.0927 0.492993,-0.0863 z m 39.797571,0.47594 c 0.194378,-0.004 0.425943,0.003 0.693498,0.0238 0.919619,0.0706 1.755092,0.37667 1.856217,0.68007 0.207023,0.62104 -0.152395,0.65319 -1.453658,0.1297 -0.491179,-0.19759 -1.029609,-0.28055 -1.196826,-0.18448 -0.167228,0.0961 -0.433472,-0.0343 -0.591179,-0.28939 -0.137646,-0.22272 0.108814,-0.34642 0.691948,-0.35967 z m -37.858671,0.51625 c 0.347323,0.0215 0.120858,0.33798 -0.636137,1.00201 -0.534887,0.46921 -0.82597,0.60205 -0.646472,0.29507 0.209158,-0.3577 0.03657,-0.57176 -0.481108,-0.59635 -0.462596,-0.022 -0.245283,-0.20673 0.509013,-0.43201 0.631153,-0.1885 1.04631,-0.28162 1.254704,-0.26872 z m 134.973157,0.8971 c 0.16081,0.0319 0.41703,0.22641 0.65371,0.5116 0.74532,0.89805 0.40849,1.22751 -0.38034,0.37207 -0.33176,-0.35976 -0.511,-0.74629 -0.39843,-0.85886 0.0282,-0.0281 0.0715,-0.0354 0.12506,-0.0248 z m -94.429379,2.52078 c 0.260082,0 0.348671,0.20089 0.196887,0.44648 -0.151772,0.24558 -0.364542,0.44649 -0.472839,0.44649 -0.108298,0 -0.196887,-0.20091 -0.196887,-0.44649 0,-0.24559 0.212758,-0.44648 0.472839,-0.44648 z m 10.243819,7.64914 c 0.202331,0 0.404614,0.0306 0.558106,0.0925 0.306985,0.12387 0.0559,0.2253 -0.558106,0.2253 -0.613957,0 -0.865089,-0.10142 -0.558105,-0.2253 0.153492,-0.0619 0.355775,-0.0925 0.558105,-0.0925 z m 29.4566,14.67766 c 0.237878,0 0.316537,0.30135 0.175183,0.66973 -0.141363,0.36838 -0.336007,0.66973 -0.432531,0.66973 -0.09647,0 -0.175183,-0.30135 -0.175183,-0.66973 0,-0.36838 0.194654,-0.66973 0.432531,-0.66973 z m 68.0961,10.26604 c 0.29107,-0.0183 0.17222,0.13059 -0.32246,0.62529 -0.85794,0.85794 -1.37375,0.93164 -1.11673,0.15968 0.10219,-0.30699 0.55683,-0.62991 1.01028,-0.71779 0.18936,-0.0367 0.33189,-0.0611 0.42891,-0.0672 z m -3.3631,3.57601 c 0.26008,0 0.47284,0.2009 0.47284,0.44649 0,0.24558 -0.0887,0.44648 -0.19689,0.44648 -0.10831,0 -0.32106,-0.2009 -0.47284,-0.44648 -0.15178,-0.24559 -0.0632,-0.44649 0.19689,-0.44649 z m -4.75578,3.73311 c 0.0897,-0.0455 0.22915,0.013 0.4284,0.17053 0.30698,0.24268 0.85995,0.55246 1.22834,0.68885 0.38174,0.14133 0.14177,0.26309 -0.5581,0.28318 -0.84949,0.0243 -1.22835,-0.18765 -1.22835,-0.68884 0,-0.25861 0.04,-0.40819 0.12971,-0.45372 z m 3.43235,0.29507 c 0.46148,0.0217 0.96341,0.17208 1.12499,0.43356 0.15885,0.25703 -0.206,0.40406 -0.86713,0.34934 -0.62744,-0.0519 -1.1405,-0.25188 -1.1405,-0.4439 0,-0.25384 0.42115,-0.36072 0.88264,-0.339 z m -20.08302,4.95629 c 0.28327,0 0.56646,0.0281 0.78135,0.0842 0.42977,0.11232 0.0783,0.20412 -0.78135,0.20412 -0.85954,0 -1.21112,-0.0918 -0.78134,-0.20412 0.21488,-0.0562 0.49808,-0.0842 0.78134,-0.0842 z m -6.4673,0.73535 c 0.20024,-0.007 0.43248,0.003 0.6997,0.0289 2.08364,0.20389 2.59486,0.81984 0.64544,0.77773 -0.86524,-0.0187 -1.57681,-0.23501 -1.5813,-0.48059 -0.004,-0.24559 -0.2211,-0.14514 -0.48163,0.22324 -0.42105,0.59535 -0.45376,0.59535 -0.29093,0 0.0963,-0.35203 0.408,-0.52764 1.00872,-0.54932 z m 1.38338,4.13463 c 0.45107,-0.007 1.07616,0.19252 1.70842,0.67076 0.80241,0.60692 0.6363,0.88208 -0.40773,0.67541 -0.23869,-0.0473 -0.0569,0.33092 0.40411,0.84026 0.87908,0.97137 0.42217,1.28761 -0.50694,0.35089 -0.29522,-0.29764 -0.84769,-0.80007 -1.22784,-1.11673 -0.98991,-0.82463 -0.72182,-1.40928 0.03,-1.42059 z m -2.73059,0.89349 c 0.24559,0 0.74835,0.19498 1.11673,0.43305 0.36838,0.23807 0.46883,0.43305 0.22324,0.43305 -0.24559,0 -0.74833,-0.19498 -1.11672,-0.43305 -0.36838,-0.23807 -0.46883,-0.43305 -0.22325,-0.43305 z m 1.11673,1.66398 c 1.93646,0.0324 2.23242,0.0985 2.23242,0.49919 0,0.2149 -1.10493,0.39068 -2.45566,0.39068 -1.35072,0 -2.45618,-0.17578 -2.45618,-0.39068 0,-0.39996 0.70971,-0.53207 2.67942,-0.49919 z" /><g
       aria-label="CLASSIFIED"
       id="text9667"
       style="font-size:17.0991px;line-height:1.25;font-family:Cambria;-inkscape-font-specification:Cambria;text-align:center;text-anchor:middle;stroke-width:0.264582"><path
         d="m 66.755036,98.656441 1.21921,1.965249 -0.702381,0.43575 q -0.553203,-0.51161 -1.040185,-0.71059 -0.491383,-0.20607 -0.935859,-0.14649 -0.444475,0.0596 -0.934014,0.36329 -0.73076,0.45336 -1.001733,1.29942 -0.26828,0.83456 0.01277,2.0161 0.276644,1.17445 1.134933,2.55793 0.862691,1.39057 1.744097,2.20949 0.877006,0.81182 1.714523,0.98984 0.833116,0.17092 1.59935,-0.30444 0.58177,-0.36092 0.849463,-0.75298 0.263292,-0.39915 0.287133,-0.91503 0.03094,-0.52029 -0.177779,-1.36352 l 0.702381,-0.43574 1.258824,2.0291 q -0.55687,0.5911 -1.206433,1.11199 -0.638067,0.52358 -1.475249,1.04295 -1.802068,1.11798 -3.481442,0.46987 -1.679373,-0.6481 -3.180279,-3.06742 -0.941917,-1.51828 -1.175207,-2.95543 -0.226195,-1.44156 0.315888,-2.64249 0.542083,-1.20093 1.833329,-2.002004 0.645623,-0.400534 1.235934,-0.668501 0.58591,-0.275061 1.40273,-0.526344 z"
         id="path28607" /><path
         d="m 76.358879,105.50461 1.996241,-0.89448 q 0.327628,-0.14681 0.531515,-0.28391 0.203888,-0.1371 0.322133,-0.28158 0.122449,-0.1555 0.182904,-0.34728 0.06466,-0.2028 0.07653,-0.48259 0.01187,-0.27979 -0.04272,-0.66703 -0.05038,-0.39829 -0.208672,-1.15992 l 0.769544,-0.34482 1.220065,3.13122 -6.849699,3.06923 -0.167289,-0.37334 q 0.417768,-0.33358 0.512905,-0.55004 0.09172,-0.22408 0.01453,-0.51886 -0.06957,-0.29819 -0.322212,-0.86201 l -2.953158,-6.590646 q -0.23557,-0.525728 -0.379502,-0.744854 -0.147346,-0.226745 -0.296815,-0.315304 -0.145265,-0.09959 -0.324171,-0.110917 -0.18232,-0.01895 -0.577188,0.03905 l -0.167289,-0.373343 3.207701,-1.437318 0.167289,0.373343 q -0.294278,0.24165 -0.404903,0.382709 -0.10642,0.130026 -0.143226,0.292903 -0.03681,0.162876 0.03014,0.434796 0.06695,0.271919 0.312761,0.820505 z"
         id="path28609" /><path
         d="m 88.193684,102.01503 -0.113467,-0.39306 q 0.377925,-0.196 0.542656,-0.34784 0.172753,-0.15415 0.220383,-0.35039 0.04532,-0.20426 -0.03805,-0.49304 -0.07873,-0.27274 -0.233215,-0.567054 -0.156799,-0.302339 -0.39059,-0.660664 l -0.595519,-0.94911 -3.738075,1.079093 -0.0458,0.864855 q -0.0372,0.6538 -0.01338,0.97715 0.02382,0.32335 0.09561,0.57202 0.138938,0.48129 0.444425,0.63643 0.313509,0.15282 0.839712,0.0791 l 0.113467,0.39306 -3.425233,0.98878 -0.113467,-0.39306 q 0.42837,-0.20187 0.62758,-0.74602 0.207232,-0.54647 0.279248,-1.47103 l 0.781592,-9.84556 1.267416,-0.365873 5.309301,8.156787 q 0.373139,0.570111 0.61247,0.857316 0.247352,0.28489 0.509174,0.40918 0.261822,0.12429 0.648268,0.10832 l 0.113466,0.39306 z m -4.330753,-3.442469 3.353037,-0.967942 -3.017701,-4.733972 z"
         id="path28611" /><path
         d="m 93.204738,98.207742 q 0.272105,0.702614 0.614909,1.082589 0.342804,0.379974 0.819231,0.520886 0.475211,0.13265 1.177339,0.0294 0.966458,-0.142127 1.404498,-0.721322 0.4463,-0.58041 0.304174,-1.546868 -0.09111,-0.619525 -0.367829,-1.009218 -0.276721,-0.389693 -0.818745,-0.689736 -0.542023,-0.300044 -1.614408,-0.648678 -1.036914,-0.336972 -1.665428,-0.708686 -0.629729,-0.379975 -0.98954,-0.875594 -0.35155,-0.496834 -0.445087,-1.132879 -0.136053,-0.925157 0.193874,-1.665671 0.336972,-0.74999 1.116601,-1.244395 0.787889,-0.49562 1.869992,-0.654754 0.627785,-0.09232 1.232246,-0.113702 0.612722,-0.02259 1.547111,0.07628 l 0.327985,2.230289 -0.817772,0.120261 q -0.296886,-0.698969 -0.645521,-1.061209 -0.348635,-0.362239 -0.759951,-0.462092 -0.41253,-0.108112 -1.032055,-0.017 -0.536921,0.07896 -0.937304,0.340374 -0.392122,0.260201 -0.580409,0.7014 -0.189501,0.432938 -0.108112,0.98638 0.08625,0.586483 0.352279,0.96087 0.274292,0.373173 0.77137,0.654509 0.497077,0.281337 1.43584,0.582109 1.135066,0.373172 1.780101,0.742457 0.653295,0.36807 1.061695,0.907177 0.415447,0.529633 0.529634,1.306103 0.12755,0.867335 -0.05636,1.510426 -0.185128,0.63483 -0.616609,1.086476 -0.424434,0.442171 -1.076271,0.715246 -0.644791,0.2636 -1.446043,0.38143 -1.296871,0.19072 -3.054621,0.002 l -0.332844,-2.263328 z"
         id="path28613" /><path
         d="m 101.93588,97.159273 q 0.18613,0.730111 0.48104,1.148353 0.29491,0.418242 0.75106,0.615114 0.45594,0.188526 1.16538,0.169975 0.97652,-0.02554 1.48068,-0.548191 0.5125,-0.522875 0.48697,-1.499394 -0.0164,-0.625974 -0.24451,-1.045962 -0.22813,-0.419988 -0.73039,-0.782695 -0.50225,-0.362708 -1.52525,-0.837079 -0.98918,-0.458551 -1.56873,-0.902758 -0.57977,-0.452553 -0.87773,-0.987643 -0.28962,-0.535308 -0.30642,-1.177975 -0.0245,-0.934787 0.39167,-1.630534 0.42424,-0.704311 1.25739,-1.101939 0.84151,-0.397845 1.93487,-0.426436 0.63432,-0.01659 1.23701,0.03447 0.61102,0.05084 1.52688,0.260746 l 0.0589,2.253506 -0.82629,0.02161 q -0.21117,-0.729456 -0.51398,-1.130787 -0.30282,-0.401331 -0.69924,-0.549653 -0.39664,-0.156669 -1.02262,-0.1403 -0.54251,0.01419 -0.97128,0.225847 -0.42042,0.211442 -0.66012,0.626959 -0.23991,0.407171 -0.22529,0.966374 0.0155,0.592588 0.23485,0.996102 0.2277,0.403295 0.68756,0.742055 0.45987,0.33876 1.35593,0.749634 1.0823,0.506228 1.67854,0.949998 0.6046,0.443552 0.9456,1.027629 0.34913,0.575512 0.36964,1.360066 0.0229,0.876363 -0.23658,1.492846 -0.25971,0.608137 -0.74211,1.004945 -0.47426,0.388242 -1.15408,0.581411 -0.67168,0.184605 -1.48128,0.205775 -1.31037,0.03426 -3.03293,-0.363349 l -0.0598,-2.286891 z"
         id="path28615" /><path
         d="m 112.41665,97.826133 q -0.0404,0.557936 -0.0257,0.818496 0.023,0.261162 0.0954,0.417079 0.0808,0.156521 0.24008,0.268498 0.16764,0.112581 0.54347,0.240222 l -0.0295,0.408043 -3.51416,-0.254231 0.0295,-0.408043 q 0.52594,-0.09589 0.71226,-0.241457 0.18692,-0.153896 0.25857,-0.450068 0.08,-0.29557 0.12456,-0.911798 l 0.52112,-7.203207 q 0.0416,-0.574591 0.0186,-0.835753 -0.0224,-0.269489 -0.11204,-0.418284 -0.0808,-0.15652 -0.23296,-0.251241 -0.15159,-0.103048 -0.52682,-0.239016 l 0.0295,-0.408043 3.51417,0.254231 -0.0295,0.408043 q -0.37304,0.06509 -0.54621,0.144646 -0.16485,0.08016 -0.27502,0.214492 -0.10124,0.126611 -0.17108,0.397801 -0.0615,0.271792 -0.10309,0.846383 z"
         id="path28617" /><path
         d="m 124.76093,90.254757 -0.44345,2.482149 -0.80546,-0.143899 q -0.081,-0.591199 -0.1919,-0.967234 -0.10271,-0.374567 -0.25944,-0.589158 -0.14852,-0.213122 -0.38187,-0.331145 -0.23336,-0.118022 -0.63609,-0.189971 l -2.40818,-0.43023 -0.79879,4.471155 1.69312,0.302483 q 0.36164,0.06461 0.58767,-0.01375 0.2275,-0.08658 0.40893,-0.34253 0.18965,-0.254485 0.41719,-0.816011 l 0.77259,0.138026 -0.61965,3.468433 -0.77259,-0.138026 q -0.0234,-0.58092 -0.11323,-0.885329 -0.0883,-0.312628 -0.26504,-0.462936 -0.16701,-0.157057 -0.54508,-0.224602 l -1.69313,-0.302482 -0.57559,3.221862 q -0.0881,0.493142 -0.0834,0.799306 0.005,0.306164 0.10534,0.502257 0.10067,0.196094 0.30643,0.326145 0.20723,0.12184 0.52278,0.25455 l -0.072,0.40273 -3.64925,-0.65195 0.0719,-0.402737 q 0.53308,-0.04047 0.73358,-0.165792 0.20196,-0.133545 0.30414,-0.42062 0.11039,-0.285607 0.21905,-0.893816 l 1.27013,-7.109466 q 0.10132,-0.567113 0.10575,-0.829245 0.006,-0.270351 -0.0678,-0.427695 -0.064,-0.164095 -0.20546,-0.274184 -0.14,-0.118308 -0.49899,-0.2927 l 0.072,-0.402733 z"
         id="path28619" /><path
         d="m 127.28146,100.65021 q -0.15572,0.53728 -0.1957,0.79517 -0.0319,0.26022 0.006,0.4278 0.0464,0.16991 0.17887,0.31263 0.14051,0.14504 0.4815,0.34818 l -0.11389,0.39294 -3.38407,-0.98083 0.11388,-0.39293 q 0.53438,0.0158 0.74694,-0.0878 0.21489,-0.11158 0.34667,-0.38632 0.13981,-0.27242 0.3118,-0.86584 l 2.01046,-6.936551 q 0.16038,-0.553321 0.19233,-0.813535 0.0343,-0.268234 -0.0224,-0.43245 -0.0464,-0.169911 -0.17549,-0.294263 -0.1268,-0.132371 -0.46546,-0.343534 l 0.11388,-0.392938 3.38408,0.980826 -0.11389,0.392938 q -0.37841,-0.01406 -0.56436,0.02767 -0.17793,0.04405 -0.31367,0.152485 -0.1254,0.10274 -0.25021,0.353426 -0.1168,0.25301 -0.27717,0.806331 z"
         id="path28621" /><path
         d="m 141.15925,95.939181 -0.96395,2.329913 -0.75607,-0.312808 q 0.0407,-0.425911 0.0353,-0.762434 -0.005,-0.336524 -0.0567,-0.58366 -0.0514,-0.247136 -0.16549,-0.42989 -0.10642,-0.179562 -0.30648,-0.307511 -0.19687,-0.135663 -0.49775,-0.260147 l -2.43792,-1.008644 -1.67257,4.042629 1.651,0.68307 q 0.33946,0.140444 0.57064,0.127662 0.23436,-0.0205 0.45356,-0.200874 0.22691,-0.177186 0.54692,-0.623063 l 0.7252,0.300039 -1.22569,2.962537 -0.72521,-0.30004 q 0.0835,-0.50758 0.0481,-0.79329 -0.0322,-0.29343 -0.17587,-0.47033 -0.13594,-0.17371 -0.49855,-0.32373 l -1.65099,-0.683066 -1.84174,4.451526 2.39935,0.99268 q 0.37803,0.1564 0.63502,0.19044 0.26789,0.0295 0.50145,-0.0546 0.23676,-0.0918 0.47325,-0.29212 0.23649,-0.20033 0.43307,-0.43524 0.20749,-0.23944 0.57883,-0.70022 l 0.76378,0.316 -1.26694,2.6473 -7.14404,-2.95571 0.15641,-0.37803 q 0.52939,0.0745 0.75205,-0.005 0.22585,-0.0873 0.38705,-0.34585 0.16892,-0.2554 0.40512,-0.8263 l 2.761,-6.673427 q 0.22024,-0.532331 0.28062,-0.787454 0.0636,-0.262838 0.0252,-0.432295 -0.0274,-0.17398 -0.14208,-0.311775 -0.11147,-0.145511 -0.42486,-0.392633 l 0.1564,-0.378033 z"
         id="path28623" /><path
         d="m 138.64367,107.33778 0.21146,-0.35022 q 0.38057,0.11275 0.57099,0.12044 0.19042,0.008 0.3424,-0.0663 0.15199,-0.074 0.32582,-0.28117 0.17383,-0.20714 0.47161,-0.7003 l 3.73295,-6.182465 q 0.30208,-0.500314 0.40013,-0.74346 0.10236,-0.250293 0.09,-0.423585 -0.005,-0.168976 -0.0979,-0.322445 -0.0883,-0.160616 -0.36816,-0.456363 l 0.21147,-0.35022 3.13054,1.89021 q 1.35085,0.815638 2.02728,1.633698 0.68789,0.81522 0.93156,1.75234 0.24367,0.93713 0.0145,1.9789 -0.22482,1.03462 -0.94552,2.22823 -0.72933,1.2079 -1.56478,1.9616 -0.82399,0.75087 -1.72835,1.05334 -0.78541,0.26701 -1.66157,0.21588 -0.72297,-0.0464 -1.51822,-0.36077 -0.79525,-0.31436 -1.98886,-1.03506 z m 2.58129,0.65154 q 0.26863,0.20121 0.82613,0.53782 0.60038,0.36251 1.13252,0.54727 0.53214,0.18477 1.04756,0.20339 0.51543,0.0186 1.05149,-0.17463 0.54037,-0.20039 1.03113,-0.57703 0.49506,-0.3838 0.94765,-0.93954 0.45974,-0.55142 0.89561,-1.2733 0.87606,-1.45092 1.01538,-2.63469 0.15079,-1.1866 -0.35504,-2.07721 -0.49869,-0.88629 -1.5565,-1.52499 -0.48602,-0.293457 -0.93927,-0.528117 z"
         id="path28625" /></g><g
       aria-label="ADVERTISING"
       id="text12625"
       style="font-size:17.0991px;line-height:1.25;font-family:Cambria;-inkscape-font-specification:Cambria;text-align:center;text-anchor:middle;stroke-width:0.264582"><path
         d="m 63.33614,240.70057 0.218391,-0.34594 q 0.397571,0.15225 0.620496,0.17449 0.229985,0.0267 0.408301,-0.0681 0.182773,-0.10184 0.343223,-0.356 0.151536,-0.24004 0.268876,-0.55104 0.121798,-0.31806 0.234287,-0.73086 l 0.313724,-1.07565 -3.289984,-2.07693 -0.676822,0.54035 q -0.513375,0.40656 -0.739219,0.63919 -0.225844,0.23262 -0.364009,0.45148 -0.267417,0.42361 -0.18041,0.755 0.09407,0.33584 0.498738,0.68017 l -0.21839,0.34594 -3.014642,-1.90311 0.218391,-0.34594 q 0.435475,0.18604 0.974526,-0.0266 0.546111,-0.20817 1.284974,-0.7686 l 7.877875,-5.95693 1.115488,0.7042 -2.569072,9.38731 q -0.1782,0.65765 -0.233854,1.02734 -0.04859,0.37414 0.03246,0.65241 0.08105,0.27826 0.349728,0.55648 l -0.21839,0.34594 z m -0.304311,-5.52389 2.951101,1.863 1.533318,-5.40055 z"
         id="path38070" /><path
         d="m 67.642133,243.27858 0.171202,-0.37156 q 0.390743,0.0697 0.580835,0.0562 0.190092,-0.0135 0.332901,-0.10401 0.142809,-0.0905 0.29253,-0.31566 0.14972,-0.22519 0.3908,-0.74841 l 3.022239,-6.55926 q 0.244575,-0.5308 0.314971,-0.78334 0.07389,-0.26013 0.04229,-0.43097 -0.02402,-0.16734 -0.133153,-0.30955 -0.105643,-0.1498 -0.416621,-0.41259 l 0.171202,-0.37157 3.321334,1.53034 q 1.433178,0.66035 2.196388,1.3981 0.774286,0.73367 1.120664,1.63788 0.346378,0.90422 0.234515,1.96501 -0.108369,1.0532 -0.691854,2.31955 -0.590472,1.28152 -1.336922,2.12346 -0.735374,0.83785 -1.600484,1.23902 -0.750846,0.35269 -1.627263,0.39932 -0.723644,0.0343 -1.548919,-0.18969 -0.825275,-0.22397 -2.091628,-0.80746 z m 2.637735,0.36043 q 0.289343,0.17009 0.880813,0.44262 0.636968,0.29349 1.186358,0.41793 0.54939,0.12443 1.063687,0.0856 0.514297,-0.0388 1.025541,-0.29048 0.514739,-0.25924 0.960559,-0.68813 0.449314,-0.43647 0.837292,-1.03909 0.395562,-0.59913 0.748447,-1.36501 0.709266,-1.53934 0.716081,-2.73127 0.01789,-1.19601 -0.583849,-2.02484 -0.594158,-0.82533 -1.716435,-1.34243 -0.515641,-0.23759 -0.992177,-0.42038 z"
         id="path38072" /><path
         d="m 83.945944,237.75767 -0.121628,0.39061 q -0.386553,-0.0504 -0.60766,-0.0143 -0.221106,0.0361 -0.371374,0.18168 -0.150268,0.14559 -0.24211,0.44054 -0.0844,0.27103 -0.119909,0.60976 -0.03303,0.33075 -0.03509,0.75859 l -0.160107,7.08571 4.328234,-5.84031 q 0.09499,-0.13657 0.194948,-0.28908 0.09996,-0.15251 0.181487,-0.30202 0.0895,-0.14702 0.134707,-0.26411 0.05318,-0.11461 0.08544,-0.21824 0.148932,-0.4783 -0.0073,-0.76304 -0.145734,-0.29022 -0.647041,-0.53377 l 0.121628,-0.39061 3.348096,1.04253 -0.121628,0.39061 q -0.35166,-0.0221 -0.598113,0.0674 -0.246453,0.0894 -0.549997,0.36216 -0.295572,0.27524 -0.802943,0.92175 l -6.058515,7.80249 -1.044287,-0.32517 0.0812,-9.7249 q 0.01065,-0.79244 -0.05446,-1.14501 -0.06263,-0.36054 -0.206785,-0.57157 -0.141676,-0.21901 -0.451664,-0.40298 l 0.121628,-0.39061 z"
         id="path38074" /><path
         d="m 97.355993,240.87703 -0.449712,2.48102 -0.8051,-0.14593 q -0.05026,-0.42489 -0.126611,-0.75268 -0.07635,-0.32779 -0.17878,-0.55849 -0.102432,-0.23069 -0.252617,-0.3852 -0.141969,-0.15301 -0.364552,-0.23578 -0.221094,-0.091 -0.54149,-0.14906 l -2.596036,-0.47056 -0.780294,4.30482 1.758074,0.31867 q 0.361473,0.0655 0.584725,0.004 0.224741,-0.0696 0.40086,-0.2922 0.184333,-0.22115 0.402866,-0.72459 l 0.772238,0.13998 -0.571819,3.15467 -0.772238,-0.13997 q -0.02567,-0.51377 -0.120655,-0.78554 -0.0935,-0.27999 -0.271306,-0.42253 -0.169593,-0.14105 -0.555713,-0.21104 l -1.758074,-0.31867 -0.859218,4.74023 2.554959,0.46312 q 0.40255,0.073 0.660922,0.0519 0.268076,-0.0278 0.478595,-0.15932 0.212008,-0.13976 0.400809,-0.38555 0.188801,-0.24579 0.331288,-0.51694 0.152192,-0.27788 0.417757,-0.80674 l 0.813315,0.14742 -0.678769,2.85528 -7.607369,-1.37892 0.07297,-0.40255 q 0.533175,-0.0391 0.733989,-0.16394 0.202304,-0.13303 0.305203,-0.41985 0.111116,-0.28533 0.22131,-0.89326 l 1.288082,-7.10624 q 0.102748,-0.56685 0.107834,-0.82897 0.0066,-0.27034 -0.06669,-0.42787 -0.06356,-0.16425 -0.204764,-0.2747 -0.139711,-0.11866 -0.498256,-0.29396 l 0.07297,-0.40255 z"
         id="path38076" /><path
         d="m 100.18047,247.54764 -0.16811,2.83373 q -0.0356,0.60009 -0.0102,0.8776 0.0342,0.26967 0.11746,0.4168 0.0838,0.13879 0.23668,0.23986 0.15341,0.0927 0.53037,0.22383 l -0.0242,0.40839 -3.517171,-0.20865 0.02423,-0.40839 q 0.524651,-0.1027 0.70907,-0.25067 0.184914,-0.15631 0.25272,-0.45338 0.07614,-0.29659 0.112731,-0.91334 l 0.42769,-7.20936 q 0.03412,-0.57508 0.0078,-0.83592 -0.02585,-0.26918 -0.11746,-0.4168 -0.08278,-0.15546 -0.236191,-0.2482 -0.152917,-0.10107 -0.529877,-0.23216 l 0.02423,-0.40839 4.125588,0.24474 q 1.95027,0.1157 2.87505,0.88149 0.92478,0.76579 0.83627,2.25767 -0.0677,1.14183 -0.74863,1.90436 -0.67255,0.76303 -1.95776,1.13844 l -0.004,0.0667 q 0.49605,0.23853 0.83119,0.65151 0.34398,0.40514 0.73725,1.24813 l 0.66902,1.41136 q 0.28944,0.61937 0.50402,0.94993 0.21458,0.33055 0.44639,0.51158 0.23181,0.18103 0.62792,0.27144 l -0.0242,0.40839 -2.30866,-0.13696 q -0.29051,-0.46052 -0.54372,-0.98573 -0.25322,-0.52522 -0.4971,-1.06661 l -0.65087,-1.43538 q -0.2958,-0.6532 -0.4947,-0.96609 -0.19056,-0.31241 -0.367,-0.43997 -0.16761,-0.1354 -0.3735,-0.18943 -0.19706,-0.0619 -0.60545,-0.0861 z m 0.33622,-5.66748 -0.2937,4.95071 0.9418,0.0559 q 0.7251,0.043 1.1811,-0.0303 0.45649,-0.0816 0.85719,-0.35061 0.40069,-0.26897 0.65638,-0.77236 0.26451,-0.51123 0.30951,-1.26967 0.047,-0.79178 -0.19692,-1.33317 -0.23555,-0.54089 -0.76932,-0.84857 -0.53376,-0.30767 -1.46722,-0.36304 -0.75011,-0.0445 -1.21882,-0.0389 z"
         id="path38078" /><path
         d="m 106.27006,241.46926 9.01686,-0.55301 0.17786,2.90006 -0.81669,0.0501 q -0.22729,-0.70544 -0.43618,-1.11087 -0.20056,-0.40594 -0.41385,-0.61035 -0.21329,-0.2044 -0.45226,-0.28176 -0.23062,-0.0779 -0.68897,-0.0498 l -1.05835,0.0649 0.52336,8.53352 q 0.0302,0.49167 0.0981,0.78028 0.0762,0.2881 0.19529,0.45645 0.12689,0.15952 0.3247,0.24777 0.19729,0.0799 0.61125,0.14653 l 0.0251,0.40835 -3.80842,0.23357 -0.025,-0.40834 q 0.24643,-0.0737 0.43401,-0.15209 0.18758,-0.0784 0.29863,-0.17725 0.11887,-0.10767 0.18467,-0.26227 0.0741,-0.15512 0.1,-0.41601 0.0341,-0.26141 0.003,-0.76142 l -0.52337,-8.53351 -1.05002,0.0644 q -0.39168,0.024 -0.64541,0.11487 -0.24541,0.0903 -0.44726,0.3453 -0.20236,0.24662 -0.35861,0.69954 -0.14843,0.44408 -0.26587,1.12047 l -0.82502,0.0506 z"
         id="path38080" /><path
         d="m 119.71914,249.53735 q 0.0867,0.55264 0.1598,0.80316 0.0814,0.24923 0.18713,0.38476 0.11402,0.13423 0.29451,0.20734 0.18875,0.0718 0.58369,0.11126 l 0.0634,0.40417 -3.48078,0.54604 -0.0634,-0.40416 q 0.49069,-0.2122 0.63932,-0.39609 0.14733,-0.19214 0.15024,-0.49684 0.0112,-0.306 -0.0846,-0.91637 l -1.11926,-7.13478 q -0.0893,-0.56913 -0.17064,-0.81836 -0.0826,-0.25747 -0.20362,-0.38217 -0.11403,-0.13423 -0.28368,-0.19213 -0.17095,-0.0661 -0.5672,-0.11385 l -0.0634,-0.40417 3.48078,-0.54604 0.0634,0.40416 q -0.34869,0.14767 -0.49942,0.26428 -0.14249,0.11531 -0.21947,0.27106 -0.07,0.14621 -0.0768,0.42617 0.001,0.27866 0.0907,0.84779 z"
         id="path38082" /><path
         d="m 123.12195,248.40856 q 0.33736,0.67372 0.71458,1.01955 0.37722,0.34583 0.86485,0.44103 0.48563,0.0871 1.17483,-0.0821 0.94868,-0.23294 1.32995,-0.85098 0.38938,-0.62004 0.15644,-1.56871 -0.14932,-0.60813 -0.46167,-0.96989 -0.31235,-0.36176 -0.88033,-0.60917 -0.56799,-0.24741 -1.66855,-0.49301 -1.06415,-0.23735 -1.72501,-0.54792 -0.66286,-0.31869 -1.06795,-0.77804 -0.39698,-0.46134 -0.55028,-1.08568 -0.22299,-0.90813 0.0354,-1.67654 0.2645,-0.77851 0.99385,-1.34447 0.73745,-0.56794 1.79964,-0.82875 0.61624,-0.15131 1.21596,-0.22979 0.60784,-0.0805 1.54739,-0.0704 l 0.53755,2.18925 -0.80273,0.1971 q -0.36169,-0.66774 -0.74303,-0.99537 -0.38135,-0.32762 -0.80027,-0.38811 -0.42091,-0.0686 -1.02903,0.0807 -0.52704,0.12941 -0.90089,0.42753 -0.36575,0.29614 -0.51144,0.75317 -0.14769,0.44893 -0.0143,0.99219 0.14136,0.57569 0.44162,0.92322 0.30837,0.34555 0.82984,0.57859 0.52147,0.23304 1.48448,0.44364 1.16528,0.26409 1.84236,0.57069 0.68519,0.3046 1.14277,0.80264 0.4637,0.48795 0.65085,1.25013 0.20904,0.85138 0.0868,1.50899 -0.12423,0.64949 -0.51103,1.13994 -0.3807,0.48035 -1.00377,0.81388 -0.61696,0.32343 -1.40346,0.51655 -1.27301,0.31257 -3.04073,0.29097 l -0.54551,-2.22169 z"
         id="path38084" /><path
         d="m 132.94718,246.15138 q 0.17924,0.5299 0.29381,0.76438 0.12247,0.2318 0.24972,0.34741 0.13515,0.11293 0.32543,0.15434 0.19819,0.0387 0.59411,0.0106 l 0.13108,0.38754 -3.33759,1.12892 -0.13109,-0.38754 q 0.44756,-0.2924 0.56282,-0.49885 0.11258,-0.21436 0.0637,-0.51514 -0.0409,-0.30345 -0.23891,-0.88871 l -2.31403,-6.84127 q -0.18459,-0.54572 -0.30706,-0.77752 -0.12515,-0.23972 -0.26554,-0.34207 -0.13515,-0.11293 -0.31217,-0.14119 -0.1797,-0.0362 -0.57829,-0.0159 l -0.13109,-0.38754 3.3376,-1.12893 0.13108,0.38754 q -0.31857,0.20471 -0.44732,0.34521 -0.12085,0.13783 -0.17028,0.30438 -0.0442,0.15597 -0.003,0.43302 0.0487,0.27437 0.23332,0.82009 z"
         id="path38086" /><path
         d="m 140.68902,240.31149 q 0.48226,0.32973 0.82118,0.58749 0.34652,0.25427 0.73896,0.58851 l 0.0986,-0.0453 q -0.25054,-0.44537 -0.91176,-1.80465 -0.66469,-1.36686 -1.17357,-2.47454 l -0.73194,-1.59324 q -0.24049,-0.52349 -0.38238,-0.75233 -0.14188,-0.22884 -0.28459,-0.31948 -0.13512,-0.0941 -0.31412,-0.10376 -0.1749,-0.0207 -0.56921,0.041 l -0.17079,-0.37176 2.73127,-1.25475 0.17079,0.37175 q -0.29959,0.24789 -0.40888,0.38998 -0.10171,0.13861 -0.13699,0.30182 -0.0277,0.15973 0.0383,0.42342 0.066,0.2637 0.32045,0.81754 l 3.90718,8.50486 -0.94836,0.43568 -7.48128,-5.14473 q -0.69775,-0.47882 -1.00408,-0.70561 -0.30632,-0.22679 -0.58641,-0.45646 l -0.12897,0.0592 q 0.32148,0.55979 1.0483,2.08188 0.72334,1.5145 1.42042,3.03187 l 0.71103,1.54772 q 0.23353,0.50832 0.37193,0.72957 0.14598,0.21777 0.28458,0.31948 0.1462,0.0982 0.33976,0.11955 0.20115,0.0178 0.59197,-0.0514 l 0.17079,0.37176 -2.76921,1.27218 -0.17078,-0.37175 q 0.41462,-0.33749 0.50772,-0.55483 0.0896,-0.22493 0.01,-0.51897 -0.0724,-0.29753 -0.33029,-0.85896 l -3.01491,-6.56262 q -0.24049,-0.5235 -0.38648,-0.74126 -0.14947,-0.22535 -0.29976,-0.31251 -0.14619,-0.0982 -0.3252,-0.10786 -0.18249,-0.0172 -0.57679,0.0445 l -0.17079,-0.37175 2.37468,-1.09094 z"
         id="path38088" /><path
         d="m 153.71773,237.88452 -0.45646,0.49648 -0.86331,-0.22423 q -0.2799,0.57245 -0.69592,1.02356 -0.41601,0.45111 -1.06502,0.86197 -1.78477,1.12986 -3.46032,0.48107 -1.68003,-0.65584 -3.20735,-3.06845 -0.95122,-1.50259 -1.17641,-2.95097 -0.22519,-1.44837 0.31487,-2.64007 0.5356,-1.19876 1.78424,-1.98922 0.65606,-0.41532 1.31186,-0.72179 0.65134,-0.31351 1.50817,-0.59901 l 1.2281,1.93996 -0.69838,0.44212 q -0.5924,-0.51432 -1.0767,-0.7018 -0.48878,-0.19454 -0.94939,-0.11046 -0.45802,0.0726 -1.01532,0.42536 -0.76893,0.48678 -1.03479,1.34679 -0.26585,0.86001 0.0215,2.03189 0.2899,1.16037 1.15181,2.52187 0.87531,1.38267 1.76413,2.19353 0.89587,0.80639 1.74908,0.96785 0.84875,0.15441 1.63179,-0.3413 0.83242,-0.52697 1.00676,-1.1413 0.16988,-0.62138 -0.30796,-1.3762 l -0.26795,-0.42327 q -0.40193,-0.6349 -0.65111,-0.87242 -0.24212,-0.24198 -0.50968,-0.29 -0.26755,-0.048 -0.71807,0.0988 l -0.21882,-0.34567 2.84998,-1.8042 0.21883,0.34566 q -0.20037,0.24543 -0.25589,0.43868 -0.06,0.1862 -0.0278,0.39311 0.0392,0.20245 0.16285,0.46016 0.12621,0.2462 0.40309,0.68357 z"
         id="path38090" /></g></g></svg>
